<?xml version="1.0" encoding="UTF-8" standalone="no"?>
<!-- Generator: Adobe Illustrator 16.0.4, SVG Export Plug-In . SVG Version: 6.00 Build 0)  -->

<svg
   xmlns:dc="http://purl.org/dc/elements/1.1/"
   xmlns:cc="http://creativecommons.org/ns#"
   xmlns:rdf="http://www.w3.org/1999/02/22-rdf-syntax-ns#"
   xmlns:svg="http://www.w3.org/2000/svg"
   xmlns="http://www.w3.org/2000/svg"
   xmlns:sodipodi="http://sodipodi.sourceforge.net/DTD/sodipodi-0.dtd"
   xmlns:inkscape="http://www.inkscape.org/namespaces/inkscape"
   version="1.1"
   id="Hintergrund"
   x="0px"
   y="0px"
   width="2560px"
   height="765px"
   viewBox="0 0 2560 765"
   enable-background="new 0 0 2560 765"
   xml:space="preserve"
   inkscape:version="0.91 r13725"
   sodipodi:docname="bg_teaser.svg"><metadata
     id="metadata662"><rdf:RDF><cc:Work
         rdf:about=""><dc:format>image/svg+xml</dc:format><dc:type
           rdf:resource="http://purl.org/dc/dcmitype/StillImage" /></cc:Work></rdf:RDF></metadata><defs
     id="defs660" /><sodipodi:namedview
     pagecolor="#ffffff"
     bordercolor="#666666"
     borderopacity="1"
     objecttolerance="10"
     gridtolerance="10"
     guidetolerance="10"
     inkscape:pageopacity="0"
     inkscape:pageshadow="2"
     inkscape:window-width="1920"
     inkscape:window-height="1017"
     id="namedview658"
     showgrid="false"
     inkscape:zoom="0.59375"
     inkscape:cx="1359.0567"
     inkscape:cy="127.24185"
     inkscape:window-x="-8"
     inkscape:window-y="-8"
     inkscape:window-maximized="1"
     inkscape:current-layer="Hintergrund" /><radialGradient
     id="SVGID_16_"
     cx="1279.6445"
     cy="302.5"
     r="413.9998"
     gradientTransform="matrix(1 0 0 0.7973 0 61.3262)"
     gradientUnits="userSpaceOnUse"><stop
       offset="0"
       style="stop-color:#FFFFFF"
       id="stop652" /><stop
       offset="0.9504"
       style="stop-color:#FFFFFF;stop-opacity:0"
       id="stop654" /></radialGradient><rect
     x="-0.35499969"
     y="0.84208024"
     width="2560"
     height="765"
     id="rect656"
     style="opacity:0.12000002;fill:none;stroke:#ffffff" /><g
     transform="translate(280.05263,96.921059)"
     style="fill:none;fill-rule:evenodd;stroke:#ffffff;stroke-width:1"
     id="Page 1"><path
       style="fill:none;stroke:#ffffff;stroke-width:5"
       inkscape:connector-curvature="0"
       d="m 132,166 c 0,-28 22,-50 50,-50 16,0 31,8 40,20 16,-47 61,-81 114,-81 66,0 120,53 120,120 0,4 -1,8 -1,13 l 5,0 c 41,0 75,33 75,75 0,41 -34,75 -75,75 l -313,0 c -45,-1 -80,-37 -80,-80 0,-40 28,-73 66,-79 -1,-5 -1,-9 -1,-13 z m 0,0"
       id="Oval" /></g><g
     transform="translate(552.89473,389.97368)"
     style="fill:none;fill-rule:evenodd;stroke:#ffffff;stroke-width:1"
     id="Page 1-0"><path
       style="fill:none;stroke:#ffffff;stroke-width:5"
       inkscape:connector-curvature="0"
       d="m 132,166 c 0,-28 22,-50 50,-50 16,0 31,8 40,20 16,-47 61,-81 114,-81 66,0 120,53 120,120 0,4 -1,8 -1,13 l 5,0 c 41,0 75,33 75,75 0,41 -34,75 -75,75 l -313,0 c -45,-1 -80,-37 -80,-80 0,-40 28,-73 66,-79 -1,-5 -1,-9 -1,-13 z m 0,0"
       id="Oval-3" /></g><g
     transform="translate(1991.2105,179.44737)"
     style="fill:none;fill-rule:evenodd;stroke:#ffffff;stroke-width:1"
     id="Page 1-4"><path
       style="fill:none;stroke:#ffffff;stroke-width:5"
       inkscape:connector-curvature="0"
       d="m 132,166 c 0,-28 22,-50 50,-50 16,0 31,8 40,20 16,-47 61,-81 114,-81 66,0 120,53 120,120 0,4 -1,8 -1,13 l 5,0 c 41,0 75,33 75,75 0,41 -34,75 -75,75 l -313,0 c -45,-1 -80,-37 -80,-80 0,-40 28,-73 66,-79 -1,-5 -1,-9 -1,-13 z m 0,0"
       id="Oval-5" /></g><g
     transform="translate(1445.5264,19.447362)"
     style="fill:none;fill-rule:evenodd;stroke:#ffffff;stroke-width:1"
     id="Page 1-0-4"><path
       style="fill:none;stroke:#ffffff;stroke-width:5"
       inkscape:connector-curvature="0"
       d="m 132,166 c 0,-28 22,-50 50,-50 16,0 31,8 40,20 16,-47 61,-81 114,-81 66,0 120,53 120,120 0,4 -1,8 -1,13 l 5,0 c 41,0 75,33 75,75 0,41 -34,75 -75,75 l -313,0 c -45,-1 -80,-37 -80,-80 0,-40 28,-73 66,-79 -1,-5 -1,-9 -1,-13 z m 0,0"
       id="Oval-3-3" /></g><g
     transform="translate(1506.1579,403.44736)"
     style="fill:none;fill-rule:evenodd;stroke:#ffffff;stroke-width:1"
     id="Page 1-0-3"><path
       style="fill:none;stroke:#ffffff;stroke-width:5"
       inkscape:connector-curvature="0"
       d="m 132,166 c 0,-28 22,-50 50,-50 16,0 31,8 40,20 16,-47 61,-81 114,-81 66,0 120,53 120,120 0,4 -1,8 -1,13 l 5,0 c 41,0 75,33 75,75 0,41 -34,75 -75,75 l -313,0 c -45,-1 -80,-37 -80,-80 0,-40 28,-73 66,-79 -1,-5 -1,-9 -1,-13 z m 0,0"
       id="Oval-3-5" /></g></svg>